<svg width="101" height="97" viewBox="0 0 101 97" fill="none" xmlns="http://www.w3.org/2000/svg">
<path d="M43.5122 6.57674L48.9448 14.5524C46.5018 15.9971 43.5183 18.489 39.9944 22.0283C36.6826 25.4648 33.5488 29.4044 30.5932 33.8469C27.6375 38.2894 25.4963 42.9269 24.1696 47.7592C25.3811 47.8273 26.4077 47.9195 27.2496 48.0357C28.3036 48.0491 29.3029 48.22 30.2475 48.5483C33.7109 49.7521 36.2129 51.9451 37.7536 55.1273C39.5064 58.2067 39.6715 61.793 38.2488 65.8862C36.662 70.4516 34.038 73.6861 30.3768 75.5896C26.7703 77.3357 22.9205 77.4974 18.8274 76.0748C12.8451 73.9955 9.0457 70.2047 7.42922 64.7023C5.81274 59.2 6.09885 53.3002 8.28755 47.0031C9.81964 42.5951 12.2517 37.8823 15.5836 32.8648C19.1278 27.7445 23.3016 22.8431 28.1051 18.1606C32.9634 13.3207 38.0991 9.45938 43.5122 6.57674ZM86.9625 21.6788L92.3951 29.6544C89.9521 31.0991 86.9686 33.5911 83.4447 37.1303C80.1329 40.5669 76.9991 44.5064 74.0435 48.9489C71.0878 53.3915 68.9466 58.0289 67.6199 62.8612C68.8314 62.9294 69.858 63.0215 70.6999 63.1377C71.7539 63.1511 72.7532 63.322 73.6978 63.6503C77.1612 64.8541 79.6632 67.0471 81.2039 70.2293C82.9567 73.3088 83.1218 76.8951 81.6991 80.9882C80.1123 85.5537 77.4883 88.7881 73.8271 90.6916C70.2206 92.4377 66.3708 92.5994 62.2777 91.1768C56.2954 89.0975 52.496 85.3067 50.8795 79.8044C49.263 74.302 49.5492 68.4023 51.7379 62.1051C53.2699 57.6971 55.702 52.9843 59.0339 47.9668C62.5781 42.8465 66.7519 37.9452 71.5554 33.2626C76.4137 28.4227 81.5494 24.5614 86.9625 21.6788Z" fill="url(#paint0_linear_68_8)"/>
<defs>
<linearGradient id="paint0_linear_68_8" x1="66.9532" y1="2.11655" x2="-251.974" y2="320.507" gradientUnits="userSpaceOnUse">
<stop stop-color="#FCFCFC" stop-opacity="0"/>
<stop offset="1" stop-color="white" stop-opacity="0.5"/>
</linearGradient>
</defs>
</svg>
